<svg viewBox="0 0 500 488" xmlns="http://www.w3.org/2000/svg" xmlns:serif="http://www.serif.com/" fill-rule="evenodd" clip-rule="evenodd" stroke-linejoin="round" stroke-miterlimit="1.414"><path fill="none" d="M0 0h500v487.653H0z"/><clipPath id="a"><path serif:id="Artboard1" d="M0 0h500v487.653H0z"/></clipPath><g clip-path="url(#a)"><path d="M250 0C111.947 0 0 111.921 0 250c0 110.452 71.632 204.163 170.965 237.22 12.494 2.314 17.081-5.423 17.081-12.026 0-5.958-.231-25.655-.34-46.545-69.55 15.123-84.225-29.497-84.225-29.497-11.373-28.892-27.758-36.58-27.758-36.58-22.683-15.516 1.71-15.198 1.71-15.198 25.104 1.764 38.322 25.767 38.322 25.767 22.298 38.215 58.485 27.166 72.75 20.778 2.249-16.154 8.724-27.186 15.873-33.43-55.528-6.317-113.9-27.757-113.9-123.55 0-27.29 9.765-49.597 25.758-67.104-2.596-6.297-11.153-31.724 2.426-66.16 0 0 20.993-6.715 68.763 25.63 19.942-5.54 41.329-8.317 62.575-8.416 21.246.099 42.65 2.877 62.628 8.416 47.717-32.345 68.681-25.63 68.681-25.63 13.608 34.436 5.051 59.863 2.455 66.16 16.03 17.507 25.726 39.813 25.726 67.103 0 96.025-58.485 117.164-114.154 123.353 8.967 7.758 16.957 22.972 16.957 46.296 0 33.45-.286 60.372-.286 68.607 0 6.657 4.496 14.448 17.169 11.997C428.459 454.097 500 360.42 500 250 500 111.922 388.07 0 250 0" fill="#181717"/></g></svg>